<?xml version="1.0" encoding="UTF-8" standalone="no"?>
<!-- Created with Inkscape (http://www.inkscape.org/) -->

<svg
   width="80.539177mm"
   height="80.565628mm"
   viewBox="0 0 80.539177 80.565628"
   version="1.1"
   id="svg1"
   xmlns="http://www.w3.org/2000/svg"
   xmlns:svg="http://www.w3.org/2000/svg">
  <defs
     id="defs1" />
  <g
     id="layer1"
     transform="translate(-90.487499,-136.52501)">
    <circle
       class="st1"
       cx="130.75708"
       cy="176.79459"
       r="40.269581"
       id="circle3"
       style="fill:#f6a31a;stroke-width:0.264583" />
    <path
       class="st4"
       d="m 171.02667,176.79459 c 0,-2.0373 -0.15875,-4.04813 -0.44979,-6.00605 h -0.21167 l -0.26458,-0.55562 h -0.29104 l -0.26459,-0.55563 h -0.29104 l -0.26458,-0.55562 h -0.29104 l -0.26459,-0.55563 h -0.29104 l -0.26458,-0.55562 h -0.29104 l -0.26459,-0.55563 h -0.29104 l -0.26458,-0.55562 h -0.29104 l -0.26459,-0.55563 h -0.29104 l -0.26458,-0.55562 h -0.29104 L 165.1,165.23229 h -0.29104 l -0.26458,-0.55562 h -0.29104 l -0.26459,-0.55563 h -0.29104 l -0.26458,-0.55562 h -0.29104 l -0.26458,-0.55563 h -0.29105 l -0.26458,-0.55562 h -0.29104 l -0.26458,-0.55563 h -0.29105 l -0.26458,-0.55562 h -0.29104 l -0.26458,-0.55563 h -0.29105 l -0.26458,-0.55562 h -0.29104 l -0.26458,-0.55563 h -0.29105 l -0.26458,-0.55562 h -0.29104 l -0.26458,-0.55563 h -0.29105 l -0.26458,-0.55562 h -0.29104 l -0.26458,-0.55563 h -0.29105 l -0.26458,-0.55562 h -0.29104 l -0.26458,-0.55563 h -0.29105 l -0.26458,-0.55562 h -0.29104 l -0.26458,-0.55563 h -0.29105 l -0.26458,-0.55562 h -0.29104 l -0.26458,-0.55563 h -0.29105 l -0.26458,-0.55562 h -0.29104 l -0.26458,-0.55563 h -0.29105 l -0.26458,-0.55562 h -0.29104 l -0.26458,-0.55563 h -0.29105 l -0.26458,-0.55562 h -0.29104 l -0.26458,-0.55563 h -0.29105 l -0.26458,-0.55562 h -0.29104 l -0.26458,-0.55563 h -0.29105 l -0.26458,-0.55562 h -34.18417 l -7.67291,14.97542 c 0.3175,-0.15875 0.68791,-0.29105 1.03187,-0.37042 l -0.47625,0.92604 c 0.3175,-0.15875 0.68792,-0.29104 1.03188,-0.37042 l -0.3175,0.635 c -1.05834,0.29105 -1.98438,0.9525 -2.61938,1.85209 l -0.66146,1.32291 c -0.15875,0.47625 -0.23812,0.97896 -0.23812,1.53459 0,1.48166 0.66146,2.80458 1.71979,3.70416 0.15875,0.21167 0.34396,0.39688 0.55563,0.55563 0.15875,0.21167 0.34395,0.39687 0.55562,0.55562 0.15875,0.21167 0.34396,0.39688 0.55563,0.55563 0.15875,0.21167 0.34395,0.39687 0.55562,0.55562 0.15875,0.21167 0.34396,0.39688 0.55563,0.55563 0.15875,0.21167 0.34395,0.39687 0.55562,0.55562 0.15875,0.21167 0.34396,0.39688 0.55563,0.55563 0.15875,0.21167 0.34395,0.39687 0.55562,0.55562 0.15875,0.21167 0.34396,0.39688 0.55563,0.55563 0.10583,0.13229 0.21166,0.23812 0.3175,0.34396 h -2.16959 c -2.69875,0 -4.86833,2.19604 -4.86833,4.86833 0,1.48167 0.66146,2.80458 1.71979,3.70417 0.15875,0.21166 0.34396,0.39687 0.55563,0.55562 0.15875,0.21167 0.34395,0.39688 0.55562,0.55563 0.15875,0.21166 0.34396,0.39687 0.55563,0.55562 0.15875,0.21167 0.34395,0.39688 0.55562,0.55563 0.15875,0.21166 0.34396,0.39687 0.55563,0.55562 0.15875,0.21167 0.34395,0.39688 0.55562,0.55563 0.15875,0.21166 0.34396,0.39687 0.55563,0.55562 0.15875,0.21167 0.34395,0.39688 0.55562,0.55563 0.15875,0.21166 0.34396,0.39687 0.55563,0.55562 0.10583,0.13229 0.21166,0.23813 0.3175,0.34396 h -2.16959 c -2.69875,0 -4.86833,2.19604 -4.86833,4.86833 0,1.48167 0.66146,2.80459 1.71979,3.70417 0.15875,0.21167 0.34396,0.39688 0.55563,0.55563 0.15875,0.21166 0.34395,0.39687 0.55562,0.55562 0.15875,0.21167 0.34396,0.39688 0.55563,0.55563 0.15875,0.21166 0.34395,0.39687 0.55562,0.55562 0.15875,0.21167 0.34396,0.39688 0.55563,0.55563 0.15875,0.21166 0.34395,0.39687 0.55562,0.55562 0.15875,0.21167 0.34396,0.39688 0.55563,0.55563 0.15875,0.21166 0.34395,0.39687 0.55562,0.55562 0.15875,0.21167 0.34396,0.39688 0.55563,0.55563 0.15875,0.21166 0.34395,0.39687 0.55562,0.55562 0.15875,0.21167 0.34396,0.39688 0.55563,0.55563 0.15875,0.21166 0.34395,0.39687 0.55562,0.55562 0.15875,0.21167 0.34396,0.39688 0.55563,0.55563 0.15875,0.21166 0.34395,0.39687 0.55562,0.55562 0.15875,0.21167 0.34396,0.39688 0.55563,0.55563 0.15875,0.21166 0.34395,0.39687 0.55562,0.55562 0.15875,0.21167 0.34396,0.39688 0.55563,0.55563 0.15875,0.21166 0.34395,0.39687 0.55562,0.55562 0.15875,0.21167 0.34396,0.39688 0.55563,0.55563 0.15875,0.21166 0.34395,0.39687 0.55562,0.55562 0.15875,0.21167 0.34396,0.39688 0.55563,0.55563 0.15875,0.21166 0.34395,0.39687 0.55562,0.55562 0.15875,0.21167 0.34396,0.39688 0.55563,0.55563 0.15875,0.21166 0.34395,0.39687 0.55562,0.55562 0.15875,0.21167 0.34396,0.39688 0.55563,0.55563 0.15875,0.21166 0.34395,0.39687 0.55562,0.55562 0.13229,0.13229 0.23813,0.26458 0.39688,0.39688 3.01625,0.71437 6.13833,1.08479 9.36625,1.08479 22.19854,0 40.21666,-18.04459 40.21666,-40.29604 z"
       id="path14"
       style="fill:#f1801f;stroke-width:0.264583" />
    <g
       id="g372"
       transform="matrix(0.26458333,0,0,0.26458333,-101.30895,104.03417)">&#10;		<path
   class="st0"
   d="M 964.1,229.4 H 797.6 c -6.1,0 -11.6,3 -14.9,7.7 l -2.5,5 c -0.6,1.8 -0.9,3.7 -0.9,5.8 0,10.2 8.3,18.4 18.4,18.4 h 166.5 c 10.2,0 18.4,-8.3 18.4,-18.4 -0.1,-10.3 -8.4,-18.5 -18.5,-18.5 z m -23,30 c -6.4,0 -11.6,-5.2 -11.6,-11.6 0,-6.4 5.2,-11.6 11.6,-11.6 6.4,0 11.6,5.2 11.6,11.6 0,6.4 -5.2,11.6 -11.6,11.6 z"
   id="path366"
   style="fill:#ffffff" />
&#10;		<path
   class="st0"
   d="m 964.1,224.8 c 3.7,0 7.1,0.9 10.2,2.4 L 946,170.5 H 816.8 l -29,56.6 c 3,-1.4 6.3,-2.2 9.8,-2.2 h 166.5 z"
   id="path367"
   style="fill:#ffffff" />
&#10;		<path
   class="st0"
   d="m 941.1,240.7 c -3.9,0 -7.1,3.2 -7.1,7.1 0,3.9 3.2,7.1 7.1,7.1 3.9,0 7.1,-3.2 7.1,-7.1 0,-3.9 -3.2,-7.1 -7.1,-7.1 z"
   id="path368"
   style="fill:#ffffff" />
&#10;		<path
   class="st0"
   d="m 941.1,346 c -3.9,0 -7.1,3.2 -7.1,7.1 0,3.9 3.2,7.1 7.1,7.1 3.9,0 7.1,-3.2 7.1,-7.1 0,-4 -3.2,-7.1 -7.1,-7.1 z"
   id="path369"
   style="fill:#ffffff" />
&#10;		<path
   class="st0"
   d="M 964.1,334.6 H 797.6 c -10.2,0 -18.4,8.3 -18.4,18.4 0,10.2 8.3,18.4 18.4,18.4 h 166.5 c 10.2,0 18.4,-8.3 18.4,-18.4 0,-10.1 -8.3,-18.4 -18.4,-18.4 z m -23,30 c -6.4,0 -11.6,-5.2 -11.6,-11.6 0,-6.4 5.2,-11.6 11.6,-11.6 6.4,0 11.6,5.2 11.6,11.6 0,6.4 -5.2,11.6 -11.6,11.6 z"
   id="path370"
   style="fill:#ffffff" />
&#10;		<path
   class="st0"
   d="m 941.1,293.3 c -3.9,0 -7.1,3.2 -7.1,7.1 0,3.9 3.2,7.1 7.1,7.1 3.9,0 7.1,-3.2 7.1,-7.1 0,-3.9 -3.2,-7.1 -7.1,-7.1 z"
   id="path371"
   style="fill:#ffffff" />
&#10;		<path
   class="st0"
   d="M 964.1,282 H 797.6 c -10.2,0 -18.4,8.3 -18.4,18.4 0,10.2 8.3,18.4 18.4,18.4 h 166.5 c 10.2,0 18.4,-8.3 18.4,-18.4 0,-10.2 -8.3,-18.4 -18.4,-18.4 z m -23,30 c -6.4,0 -11.6,-5.2 -11.6,-11.6 0,-6.4 5.2,-11.6 11.6,-11.6 6.4,0 11.6,5.2 11.6,11.6 0,6.4 -5.2,11.6 -11.6,11.6 z"
   id="path372"
   style="fill:#ffffff" />
&#10;	</g>
  </g>
</svg>
